<svg width="140" height="20" viewBox="0 0 140 20" fill="none" xmlns="http://www.w3.org/2000/svg">
    <path fill-rule="evenodd" clip-rule="evenodd" d="M12.5993 8.38184C12.3078 6.18297 10.4844 4.47105 8.24332 4.3664H8.21404H7.78606H7.75384C5.51278 4.47105 3.68935 6.18297 3.3979 8.38184H7.04338V9.68081H3.46057C3.78665 11.9117 5.69216 13.6263 7.99858 13.6396C10.305 13.6263 12.2105 11.9117 12.5366 9.68081H8.95409V8.38184H12.5993ZM7.9987 14.9999C8.00771 15 8.01672 15 8.02573 15C11.3217 15 13.9936 12.3137 13.9936 9C13.9936 7.13395 13.1463 5.46686 11.8174 4.3664H14V3.00195H8.21404H8.17943C8.12835 3.00066 8.07712 3 8.02573 3C8.01672 3 8.00771 3.00002 7.9987 3.00006C7.9897 3.00002 7.98069 3 7.97168 3C7.92029 3 7.86905 3.00066 7.81798 3.00195H7.78606H2.00009V4.3664H4.18005C2.85114 5.46686 2.00383 7.13395 2.00383 9C2.00383 12.3137 4.67573 15 7.97168 15C7.98069 15 7.9897 15 7.9987 14.9999Z" fill="#5524E0"/>
    <path d="M25.328 15V3.08H33.088V4.52H26.896V8.296H32.768V9.736H26.896V13.56H33.088V15H25.328ZM37.2231 15.192C36.6578 15.192 36.1565 15.0907 35.7191 14.888C35.2925 14.6747 34.9565 14.3867 34.7111 14.024C34.4658 13.6507 34.3431 13.224 34.3431 12.744C34.3431 12.2853 34.4391 11.8747 34.6311 11.512C34.8338 11.1387 35.1431 10.824 35.5591 10.568C35.9858 10.312 36.5191 10.1307 37.1591 10.024L40.3591 9.496V10.744L37.4951 11.224C36.9405 11.32 36.5351 11.496 36.2791 11.752C36.0338 12.008 35.9111 12.3227 35.9111 12.696C35.9111 13.048 36.0498 13.3413 36.3271 13.576C36.6151 13.8107 36.9725 13.928 37.3991 13.928C37.9431 13.928 38.4125 13.816 38.8071 13.592C39.2125 13.3573 39.5271 13.0427 39.7511 12.648C39.9858 12.2533 40.1031 11.816 40.1031 11.336V9.144C40.1031 8.67467 39.9271 8.296 39.5751 8.008C39.2338 7.70933 38.7805 7.56 38.2151 7.56C37.7245 7.56 37.2871 7.688 36.9031 7.944C36.5298 8.18933 36.2525 8.52 36.0711 8.936L34.7751 8.264C34.9351 7.86933 35.1911 7.51733 35.5431 7.208C35.8951 6.888 36.3058 6.63733 36.7751 6.456C37.2445 6.27467 37.7351 6.184 38.2471 6.184C38.9085 6.184 39.4898 6.312 39.9911 6.568C40.4925 6.81333 40.8818 7.16 41.1591 7.608C41.4471 8.04533 41.5911 8.55733 41.5911 9.144V15H40.1351V13.368L40.4071 13.464C40.2258 13.8053 39.9805 14.104 39.6711 14.36C39.3618 14.616 38.9991 14.8187 38.5831 14.968C38.1671 15.1173 37.7138 15.192 37.2231 15.192ZM46.8263 15.192C45.9623 15.192 45.2103 14.9787 44.5703 14.552C43.9303 14.1253 43.4769 13.5493 43.2103 12.824L44.3943 12.248C44.6396 12.76 44.9756 13.1653 45.4023 13.464C45.8289 13.7627 46.3036 13.912 46.8263 13.912C47.2956 13.912 47.6849 13.8 47.9943 13.576C48.3036 13.352 48.4583 13.0587 48.4583 12.696C48.4583 12.44 48.3836 12.2373 48.2343 12.088C48.0956 11.928 47.9249 11.8053 47.7223 11.72C47.5196 11.624 47.3329 11.5547 47.1623 11.512L45.8663 11.144C45.0876 10.92 44.5169 10.6 44.1543 10.184C43.8023 9.768 43.6263 9.28267 43.6263 8.728C43.6263 8.216 43.7543 7.77333 44.0103 7.4C44.2769 7.016 44.6343 6.71733 45.0823 6.504C45.5409 6.29067 46.0529 6.184 46.6183 6.184C47.3756 6.184 48.0529 6.376 48.6503 6.76C49.2583 7.144 49.6903 7.68267 49.9463 8.376L48.7303 8.936C48.5383 8.488 48.2503 8.136 47.8663 7.88C47.4823 7.61333 47.0503 7.48 46.5703 7.48C46.1329 7.48 45.7863 7.592 45.5303 7.816C45.2743 8.02933 45.1463 8.30133 45.1463 8.632C45.1463 8.87733 45.2103 9.08 45.3383 9.24C45.4663 9.38933 45.6209 9.50667 45.8023 9.592C45.9836 9.66667 46.1596 9.73067 46.3303 9.784L47.7383 10.2C48.4423 10.4027 48.9863 10.7173 49.3703 11.144C49.7649 11.5707 49.9623 12.0827 49.9623 12.68C49.9623 13.16 49.8289 13.592 49.5623 13.976C49.2956 14.36 48.9276 14.6587 48.4583 14.872C47.9889 15.0853 47.4449 15.192 46.8263 15.192ZM52.0579 18.52C51.8659 18.52 51.6739 18.504 51.4819 18.472C51.2899 18.4507 51.1085 18.4027 50.9379 18.328V17C51.0552 17.0107 51.1992 17.032 51.3699 17.064C51.5512 17.096 51.7272 17.112 51.8979 17.112C52.3992 17.112 52.7779 17 53.0339 16.776C53.3005 16.552 53.5512 16.1733 53.7859 15.64L54.3299 14.344L54.2979 15.64L50.6179 6.376H52.2339L55.0979 13.736H54.6179L57.4659 6.376H59.1139L55.2259 16.024C55.0445 16.4827 54.8099 16.904 54.5219 17.288C54.2445 17.672 53.9032 17.9707 53.4979 18.184C53.0925 18.408 52.6125 18.52 52.0579 18.52ZM68.5633 15.192C67.7206 15.192 66.9419 15.0427 66.2273 14.744C65.5126 14.4347 64.8939 14.0027 64.3713 13.448C63.8486 12.8933 63.4379 12.2427 63.1393 11.496C62.8513 10.7493 62.7073 9.93333 62.7073 9.048C62.7073 8.152 62.8513 7.33067 63.1393 6.584C63.4273 5.83733 63.8326 5.18667 64.3553 4.632C64.8779 4.07733 65.4966 3.65067 66.2113 3.352C66.9259 3.04267 67.7046 2.888 68.5473 2.888C69.3686 2.888 70.1046 3.032 70.7553 3.32C71.4166 3.608 71.9713 3.98133 72.4193 4.44C72.8779 4.89867 73.2033 5.38933 73.3953 5.912L71.9873 6.6C71.7099 5.90667 71.2779 5.35733 70.6913 4.952C70.1046 4.54667 69.3899 4.344 68.5473 4.344C67.7153 4.344 66.9739 4.54133 66.3233 4.936C65.6833 5.33067 65.1819 5.88 64.8193 6.584C64.4566 7.288 64.2753 8.10933 64.2753 9.048C64.2753 9.976 64.4566 10.792 64.8193 11.496C65.1926 12.2 65.6993 12.7493 66.3393 13.144C66.9899 13.5387 67.7313 13.736 68.5633 13.736C69.2886 13.736 69.9446 13.5813 70.5313 13.272C71.1179 12.9627 71.5819 12.536 71.9233 11.992C72.2646 11.448 72.4353 10.8187 72.4353 10.104V9.368L73.1553 10.04H68.5473V8.68H74.0193V9.736C74.0193 10.568 73.8753 11.32 73.5873 11.992C73.2993 12.664 72.9046 13.24 72.4033 13.72C71.9019 14.1893 71.3206 14.552 70.6593 14.808C69.9979 15.064 69.2993 15.192 68.5633 15.192ZM79.7694 15.192C78.9374 15.192 78.196 14.9947 77.5454 14.6C76.8947 14.2053 76.3827 13.6667 76.0094 12.984C75.636 12.2907 75.4494 11.5173 75.4494 10.664C75.4494 9.8 75.6307 9.032 75.9934 8.36C76.3667 7.688 76.868 7.16 77.4974 6.776C78.1374 6.38133 78.852 6.184 79.6414 6.184C80.2814 6.184 80.8467 6.30133 81.3374 6.536C81.8387 6.76 82.26 7.06933 82.6014 7.464C82.9534 7.848 83.22 8.29067 83.4014 8.792C83.5934 9.28267 83.6894 9.79467 83.6894 10.328C83.6894 10.4453 83.6787 10.5787 83.6574 10.728C83.6467 10.8667 83.6307 11 83.6094 11.128H76.5374V9.848H82.7454L82.0414 10.424C82.1374 9.86933 82.084 9.37333 81.8814 8.936C81.6787 8.49867 81.38 8.152 80.9854 7.896C80.5907 7.64 80.1427 7.512 79.6414 7.512C79.14 7.512 78.6814 7.64 78.2654 7.896C77.8494 8.152 77.524 8.52 77.2894 9C77.0654 9.46933 76.9747 10.0293 77.0174 10.68C76.9747 11.3093 77.0707 11.864 77.3054 12.344C77.5507 12.8133 77.892 13.1813 78.3294 13.448C78.7774 13.704 79.2627 13.832 79.7854 13.832C80.3614 13.832 80.8467 13.6987 81.2414 13.432C81.636 13.1653 81.956 12.824 82.2014 12.408L83.4494 13.048C83.2787 13.4427 83.012 13.8053 82.6494 14.136C82.2974 14.456 81.876 14.712 81.3854 14.904C80.9054 15.096 80.3667 15.192 79.7694 15.192ZM85.4695 15V6.376H86.9255V8.056L86.6855 7.912C86.8988 7.368 87.2402 6.94667 87.7095 6.648C88.1895 6.33867 88.7495 6.184 89.3895 6.184C90.0082 6.184 90.5575 6.32267 91.0375 6.6C91.5282 6.87733 91.9122 7.26133 92.1895 7.752C92.4775 8.24267 92.6215 8.79733 92.6215 9.416V15H91.1175V9.896C91.1175 9.416 91.0322 9.01067 90.8615 8.68C90.6908 8.34933 90.4455 8.09333 90.1255 7.912C89.8162 7.72 89.4588 7.624 89.0535 7.624C88.6482 7.624 88.2855 7.72 87.9655 7.912C87.6562 8.09333 87.4108 8.35467 87.2295 8.696C87.0482 9.02667 86.9575 9.42667 86.9575 9.896V15H85.4695ZM98.6868 15.192C97.8548 15.192 97.1028 15 96.4308 14.616C95.7588 14.2213 95.2254 13.6827 94.8308 13C94.4361 12.3173 94.2388 11.544 94.2388 10.68C94.2388 9.816 94.4308 9.048 94.8148 8.376C95.2094 7.704 95.7428 7.17067 96.4148 6.776C97.0868 6.38133 97.8441 6.184 98.6868 6.184C99.5188 6.184 100.271 6.38133 100.943 6.776C101.615 7.16 102.143 7.688 102.527 8.36C102.921 9.032 103.119 9.80533 103.119 10.68C103.119 11.5547 102.916 12.3333 102.511 13.016C102.105 13.688 101.567 14.2213 100.895 14.616C100.233 15 99.4974 15.192 98.6868 15.192ZM98.6868 13.752C99.2201 13.752 99.7001 13.6187 100.127 13.352C100.564 13.0853 100.905 12.7173 101.151 12.248C101.407 11.7787 101.535 11.256 101.535 10.68C101.535 10.0933 101.407 9.576 101.151 9.128C100.905 8.66933 100.564 8.30667 100.127 8.04C99.7001 7.76267 99.2201 7.624 98.6868 7.624C98.1428 7.624 97.6521 7.76267 97.2148 8.04C96.7881 8.30667 96.4468 8.66933 96.1908 9.128C95.9348 9.576 95.8068 10.0933 95.8068 10.68C95.8068 11.256 95.9348 11.7787 96.1908 12.248C96.4468 12.7173 96.7881 13.0853 97.2148 13.352C97.6521 13.6187 98.1428 13.752 98.6868 13.752ZM104.899 15V6.376H106.355V8.136L106.147 7.864C106.361 7.32 106.702 6.904 107.171 6.616C107.641 6.328 108.169 6.184 108.755 6.184C109.427 6.184 110.03 6.37067 110.563 6.744C111.107 7.11733 111.481 7.608 111.683 8.216L111.267 8.232C111.491 7.56 111.87 7.05333 112.403 6.712C112.937 6.36 113.529 6.184 114.179 6.184C114.777 6.184 115.315 6.32267 115.795 6.6C116.286 6.87733 116.675 7.26133 116.963 7.752C117.251 8.24267 117.395 8.79733 117.395 9.416V15H115.891V9.896C115.891 9.416 115.806 9.01067 115.635 8.68C115.465 8.34933 115.23 8.09333 114.931 7.912C114.643 7.72 114.302 7.624 113.907 7.624C113.523 7.624 113.177 7.72 112.867 7.912C112.569 8.09333 112.329 8.35467 112.147 8.696C111.977 9.02667 111.891 9.42667 111.891 9.896V15H110.387V9.896C110.387 9.416 110.302 9.01067 110.131 8.68C109.961 8.34933 109.726 8.09333 109.427 7.912C109.139 7.72 108.798 7.624 108.403 7.624C108.019 7.624 107.673 7.72 107.363 7.912C107.065 8.09333 106.825 8.35467 106.643 8.696C106.473 9.02667 106.387 9.42667 106.387 9.896V15H104.899ZM119.349 15V6.376H120.837V15H119.349ZM119.349 5V3.08H120.837V5H119.349ZM126.986 15.192C126.143 15.192 125.391 14.9947 124.73 14.6C124.079 14.2053 123.567 13.6667 123.194 12.984C122.82 12.3013 122.634 11.5333 122.634 10.68C122.634 9.816 122.82 9.048 123.194 8.376C123.567 7.704 124.079 7.17067 124.73 6.776C125.391 6.38133 126.143 6.184 126.986 6.184C127.551 6.184 128.079 6.28533 128.57 6.488C129.06 6.69067 129.492 6.96267 129.866 7.304C130.239 7.64533 130.511 8.04533 130.682 8.504L129.354 9.144C129.151 8.696 128.842 8.33333 128.426 8.056C128.01 7.768 127.53 7.624 126.986 7.624C126.463 7.624 125.988 7.75733 125.562 8.024C125.146 8.29067 124.815 8.65333 124.57 9.112C124.324 9.57067 124.202 10.0987 124.202 10.696C124.202 11.272 124.324 11.7947 124.57 12.264C124.815 12.7227 125.146 13.0853 125.562 13.352C125.988 13.6187 126.463 13.752 126.986 13.752C127.53 13.752 128.01 13.6133 128.426 13.336C128.842 13.048 129.151 12.6693 129.354 12.2L130.682 12.872C130.511 13.32 130.239 13.72 129.866 14.072C129.492 14.4133 129.06 14.6853 128.57 14.888C128.079 15.0907 127.551 15.192 126.986 15.192ZM135.554 15.192C134.69 15.192 133.938 14.9787 133.298 14.552C132.658 14.1253 132.205 13.5493 131.938 12.824L133.122 12.248C133.368 12.76 133.704 13.1653 134.13 13.464C134.557 13.7627 135.032 13.912 135.554 13.912C136.024 13.912 136.413 13.8 136.722 13.576C137.032 13.352 137.186 13.0587 137.186 12.696C137.186 12.44 137.112 12.2373 136.962 12.088C136.824 11.928 136.653 11.8053 136.45 11.72C136.248 11.624 136.061 11.5547 135.89 11.512L134.594 11.144C133.816 10.92 133.245 10.6 132.882 10.184C132.53 9.768 132.354 9.28267 132.354 8.728C132.354 8.216 132.482 7.77333 132.738 7.4C133.005 7.016 133.362 6.71733 133.81 6.504C134.269 6.29067 134.781 6.184 135.346 6.184C136.104 6.184 136.781 6.376 137.378 6.76C137.986 7.144 138.418 7.68267 138.674 8.376L137.458 8.936C137.266 8.488 136.978 8.136 136.594 7.88C136.21 7.61333 135.778 7.48 135.298 7.48C134.861 7.48 134.514 7.592 134.258 7.816C134.002 8.02933 133.874 8.30133 133.874 8.632C133.874 8.87733 133.938 9.08 134.066 9.24C134.194 9.38933 134.349 9.50667 134.53 9.592C134.712 9.66667 134.888 9.73067 135.058 9.784L136.466 10.2C137.17 10.4027 137.714 10.7173 138.098 11.144C138.493 11.5707 138.69 12.0827 138.69 12.68C138.69 13.16 138.557 13.592 138.29 13.976C138.024 14.36 137.656 14.6587 137.186 14.872C136.717 15.0853 136.173 15.192 135.554 15.192Z" fill="#12181F"/>
</svg>
