<svg width="16" height="16" viewBox="0 0 16 16" fill="none" xmlns="http://www.w3.org/2000/svg">
<path fill-rule="evenodd" clip-rule="evenodd" d="M12.5993 8.38184C12.3078 6.18297 10.4844 4.47105 8.24332 4.3664H8.21404H7.78606H7.75384C5.51278 4.47105 3.68935 6.18297 3.3979 8.38184H7.04338V9.68081H3.46057C3.78665 11.9117 5.69216 13.6263 7.99858 13.6396C10.305 13.6263 12.2105 11.9117 12.5366 9.68081H8.95409V8.38184H12.5993ZM7.9987 14.9999C8.00771 15 8.01672 15 8.02573 15C11.3217 15 13.9936 12.3137 13.9936 9C13.9936 7.13395 13.1463 5.46686 11.8174 4.3664H14V3.00195H8.21404H8.17943C8.12835 3.00066 8.07712 3 8.02573 3C8.01672 3 8.00771 3.00002 7.9987 3.00006C7.9897 3.00002 7.98069 3 7.97168 3C7.92029 3 7.86905 3.00066 7.81798 3.00195H7.78606H2.00009V4.3664H4.18005C2.85114 5.46686 2.00383 7.13395 2.00383 9C2.00383 12.3137 4.67573 15 7.97168 15C7.98069 15 7.9897 15 7.9987 14.9999Z" fill="#5524E0"/>
</svg>
