<svg width="402" height="60" viewBox="0 0 150 20" fill="none" xmlns="http://www.w3.org/2000/svg">
<path d="M27.1214 9.04034C23.4403 9.12912 19.4914 9.73316 17.9771 10.0275C18.3848 12.3636 20.3651 17.0416 22.2871 17.0416C24.7566 17.0416 26.5389 11.707 27.1214 9.04034Z" fill="#5524E0"/>
<path d="M11.5343 0C7.04527 0 1.97434 11.3265 0 16.9897C5.40345 12.9891 13.9243 10.8069 17.9769 10.0276C16.9377 4.10454 14.4958 0 11.5343 0Z" fill="#5524E0"/>
<path d="M146.052 17.0286C145.419 17.0286 144.843 16.9257 144.323 16.7201C143.809 16.509 143.381 16.1924 143.04 15.7703C142.699 15.3427 142.472 14.8015 142.358 14.1466L143.787 13.8706C143.847 14.5579 144.079 15.0694 144.485 15.4049C144.897 15.7405 145.411 15.9083 146.028 15.9083C146.639 15.9083 147.126 15.754 147.489 15.4455C147.852 15.137 148.033 14.7609 148.033 14.3171C148.033 13.9383 147.903 13.6379 147.643 13.416C147.389 13.1941 147.018 13.0371 146.531 12.9451L145.468 12.7422C145.181 12.6881 144.883 12.6123 144.575 12.5149C144.266 12.4174 143.977 12.2821 143.706 12.109C143.441 11.9358 143.224 11.7085 143.057 11.427C142.894 11.1456 142.813 10.7911 142.813 10.3636C142.813 9.78987 142.962 9.32172 143.26 8.95911C143.563 8.59109 143.96 8.31778 144.453 8.13918C144.951 7.96058 145.487 7.87128 146.06 7.87128C146.688 7.87128 147.235 7.96869 147.7 8.16353C148.166 8.35837 148.544 8.63709 148.837 8.9997C149.129 9.36231 149.324 9.80069 149.421 10.3148L147.919 10.6152C147.881 10.2851 147.792 9.99824 147.651 9.75469C147.516 9.51115 147.316 9.32443 147.051 9.19454C146.791 9.05923 146.453 8.99158 146.036 8.99158C145.533 8.99158 145.1 9.09712 144.737 9.30819C144.374 9.51926 144.193 9.83858 144.193 10.2661C144.193 10.5043 144.253 10.7072 144.372 10.875C144.496 11.0428 144.68 11.1835 144.924 11.2971C145.173 11.4054 145.484 11.5001 145.857 11.5813L146.937 11.8086C147.392 11.9006 147.811 12.0386 148.195 12.2226C148.58 12.4012 148.888 12.6502 149.121 12.9695C149.354 13.2888 149.47 13.7109 149.47 14.2359C149.47 14.815 149.324 15.3156 149.032 15.7378C148.745 16.1545 148.344 16.4738 147.83 16.6957C147.321 16.9176 146.729 17.0286 146.052 17.0286Z" fill="#5524E0"/>
<path d="M137.402 17.0286C136.579 17.0286 135.868 16.8418 135.267 16.4684C134.666 16.095 134.203 15.5673 133.879 14.8854C133.554 14.198 133.392 13.3862 133.392 12.4499C133.392 11.5136 133.554 10.7045 133.879 10.0226C134.203 9.33525 134.666 8.80487 135.267 8.43143C135.868 8.05799 136.579 7.87128 137.402 7.87128C138.03 7.87128 138.59 7.98764 139.082 8.22036C139.58 8.44767 140 8.77781 140.341 9.21077C140.687 9.63833 140.941 10.1552 141.104 10.7613L139.716 11.1267C139.564 10.4447 139.291 9.92247 138.896 9.55985C138.506 9.19183 138.008 9.00782 137.402 9.00782C136.596 9.00782 135.973 9.30819 135.535 9.90894C135.102 10.5043 134.885 11.3513 134.885 12.4499C134.885 13.554 135.102 14.4037 135.535 14.999C135.973 15.5944 136.596 15.892 137.402 15.892C138.003 15.892 138.498 15.7161 138.888 15.3643C139.277 15.0071 139.551 14.493 139.708 13.8219L141.088 14.2116C140.958 14.6554 140.779 15.0504 140.552 15.3968C140.325 15.7432 140.054 16.0381 139.74 16.2817C139.432 16.5252 139.08 16.7093 138.685 16.8337C138.295 16.9636 137.867 17.0286 137.402 17.0286Z" fill="#5524E0"/>
<path d="M130.1 16.8339V8.06626H131.463V16.8339H130.1ZM130.782 6.59688C130.468 6.59688 130.2 6.48593 129.978 6.26403C129.756 6.04214 129.645 5.77424 129.645 5.46033C129.645 5.14102 129.756 4.87312 129.978 4.65664C130.2 4.43474 130.468 4.32379 130.782 4.32379C131.101 4.32379 131.369 4.43474 131.585 4.65664C131.807 4.87312 131.918 5.14102 131.918 5.46033C131.918 5.77424 131.807 6.04214 131.585 6.26403C131.369 6.48593 131.101 6.59688 130.782 6.59688Z" fill="#5524E0"/>
<path d="M115.742 16.8337V8.06611H117.025V9.56797C117.231 9.11336 117.571 8.71827 118.048 8.38272C118.524 8.04176 119.09 7.87128 119.744 7.87128C120.324 7.87128 120.827 8.03093 121.254 8.35025C121.687 8.66415 122.009 9.11065 122.22 9.68975C122.497 9.15395 122.873 8.71827 123.349 8.38272C123.831 8.04176 124.391 7.87128 125.029 7.87128C125.868 7.87128 126.531 8.17706 127.018 8.78863C127.511 9.39479 127.757 10.2364 127.757 11.3134V16.8337H126.393V11.4189C126.393 10.921 126.342 10.4934 126.239 10.1362C126.136 9.77363 125.966 9.49491 125.728 9.30007C125.495 9.10524 125.175 9.00782 124.77 9.00782C124.326 9.00782 123.925 9.135 123.568 9.38937C123.216 9.63833 122.938 10.0036 122.732 10.4853C122.532 10.967 122.432 11.5542 122.432 12.247V16.8337H121.068V11.4189C121.068 10.921 121.016 10.4934 120.913 10.1362C120.811 9.77363 120.643 9.49491 120.41 9.30007C120.177 9.10524 119.861 9.00782 119.46 9.00782C119.017 9.00782 118.616 9.1323 118.259 9.38126C117.902 9.63021 117.62 9.99553 117.415 10.4772C117.209 10.9589 117.106 11.5488 117.106 12.247V16.8337H115.742Z" fill="#5524E0"/>
<path d="M109.706 17.0286C108.884 17.0286 108.159 16.8364 107.531 16.4522C106.903 16.0625 106.413 15.524 106.061 14.8367C105.71 14.1493 105.534 13.3537 105.534 12.4499C105.534 11.5461 105.71 10.7505 106.061 10.0632C106.413 9.37584 106.903 8.84004 107.531 8.45578C108.159 8.06611 108.884 7.87128 109.706 7.87128C110.529 7.87128 111.254 8.06611 111.882 8.45578C112.51 8.84004 113 9.37584 113.351 10.0632C113.703 10.7505 113.879 11.5461 113.879 12.4499C113.879 13.3537 113.703 14.1493 113.351 14.8367C113 15.524 112.51 16.0625 111.882 16.4522C111.254 16.8364 110.529 17.0286 109.706 17.0286ZM109.706 15.892C110.534 15.892 111.187 15.5835 111.663 14.9666C112.145 14.3496 112.385 13.5107 112.385 12.4499C112.385 11.3837 112.145 10.5449 111.663 9.93329C111.187 9.31631 110.534 9.00782 109.706 9.00782C108.878 9.00782 108.224 9.31631 107.742 9.93329C107.266 10.5449 107.027 11.3837 107.027 12.4499C107.027 13.5107 107.266 14.3496 107.742 14.9666C108.224 15.5835 108.878 15.892 109.706 15.892Z" fill="#5524E0"/>
<path d="M96.5747 16.8337V8.06611H97.8574V10.0469L97.8006 9.68975C98.0333 9.18642 98.4013 8.75886 98.9046 8.40708C99.4079 8.04988 100.02 7.87128 100.739 7.87128C101.362 7.87128 101.898 8.00929 102.347 8.2853C102.796 8.56132 103.142 8.9564 103.386 9.47055C103.629 9.97929 103.751 10.5936 103.751 11.3134V16.8337H102.387V11.4189C102.387 10.6991 102.238 10.1173 101.941 9.67351C101.649 9.22972 101.164 9.00782 100.488 9.00782C99.757 9.00782 99.1482 9.28654 98.6611 9.84399C98.1794 10.396 97.9386 11.197 97.9386 12.247V16.8337H96.5747Z" fill="#5524E0"/>
<path d="M90.7664 17.0286C89.933 17.0286 89.2104 16.8418 88.5989 16.4684C87.9927 16.095 87.5246 15.5673 87.1944 14.8854C86.8643 14.198 86.6992 13.3889 86.6992 12.458C86.6992 11.5217 86.8643 10.7099 87.1944 10.0226C87.5246 9.33525 87.99 8.80487 88.5907 8.43143C89.1915 8.05799 89.8978 7.87128 90.7096 7.87128C91.175 7.87128 91.6405 7.94705 92.1059 8.09859C92.5768 8.24471 93.0043 8.50179 93.3886 8.86981C93.7783 9.23242 94.0895 9.73304 94.3222 10.3717C94.5603 11.0049 94.6794 11.8059 94.6794 12.7746H87.576V11.6706H93.4941L93.1044 12.182C93.0774 11.4135 92.9529 10.7965 92.731 10.3311C92.5091 9.86564 92.2196 9.53009 91.8624 9.32443C91.5106 9.11336 91.1182 9.00782 90.6852 9.00782C90.1711 9.00782 89.7273 9.14312 89.3539 9.41373C88.9804 9.67892 88.6936 10.0686 88.4933 10.5827C88.2931 11.0969 88.193 11.7247 88.193 12.4662C88.193 13.5594 88.4149 14.4037 88.8586 14.999C89.3079 15.5944 89.9438 15.892 90.7664 15.892C91.3563 15.892 91.8515 15.7432 92.252 15.4455C92.6579 15.1479 92.9556 14.7176 93.145 14.1547L94.4845 14.6094C94.2735 15.1181 93.992 15.5538 93.6402 15.9164C93.2885 16.2736 92.869 16.5496 92.3819 16.7444C91.9003 16.9339 91.3617 17.0286 90.7664 17.0286Z" fill="#5524E0"/>
<path d="M80.4116 17.0286C79.1289 17.0286 78.0573 16.7715 77.1968 16.2574C76.3417 15.7378 75.6977 15.0234 75.2647 14.1142C74.8317 13.205 74.6152 12.1685 74.6152 11.0049C74.6152 9.81428 74.8317 8.76433 75.2647 7.85509C75.7031 6.94586 76.3336 6.23417 77.1562 5.72002C77.9789 5.20587 78.9666 4.94879 80.1194 4.94879C80.9041 4.94879 81.6239 5.08139 82.2788 5.34658C82.9391 5.60636 83.4992 6.00145 83.9592 6.53183C84.4193 7.06222 84.7413 7.73061 84.9253 8.53702L83.3341 8.90234C83.1501 7.9498 82.7686 7.25435 82.1895 6.81597C81.6104 6.37218 80.9176 6.15028 80.1112 6.15028C79.294 6.15028 78.5931 6.35594 78.0086 6.76726C77.4241 7.17858 76.9749 7.75497 76.661 8.49643C76.3525 9.23247 76.1983 10.093 76.1983 11.078C76.1983 11.9494 76.3336 12.7449 76.6042 13.4647C76.8802 14.1846 77.3186 14.7582 77.9193 15.1858C78.5201 15.6133 79.3102 15.8271 80.2898 15.8271C80.8906 15.8271 81.4778 15.7351 82.0515 15.5511C82.6306 15.3617 83.1285 15.0072 83.5452 14.4876V11.6706L83.9592 12.0928H79.616V10.8588H84.9091V14.9504C84.4923 15.5457 84.0161 15.9922 83.4803 16.2899C82.9499 16.5875 82.4141 16.7851 81.8729 16.8825C81.3371 16.9799 80.85 17.0286 80.4116 17.0286Z" fill="#5524E0"/>
<path d="M62.592 20V18.8635H63.9234C64.0208 18.8635 64.0966 18.831 64.1507 18.7661C64.2048 18.7065 64.2562 18.6091 64.3049 18.4738L64.9381 16.6635L64.8001 17.2886L61.2769 8.06635H62.8031L65.5957 16.1439L65.2953 16.0709L68.0799 8.06635H69.5899L65.409 19.0177C65.2953 19.3154 65.1032 19.5535 64.8326 19.7321C64.562 19.9107 64.2806 20 63.9883 20H62.592Z" fill="#5524E0"/>
<path d="M56.9535 17.0286C56.3203 17.0286 55.7439 16.9257 55.2244 16.7201C54.7102 16.509 54.2827 16.1924 53.9417 15.7703C53.6007 15.3427 53.3734 14.8015 53.2598 14.1466L54.6886 13.8706C54.7481 14.5579 54.9808 15.0694 55.3867 15.4049C55.798 15.7405 56.3122 15.9083 56.9292 15.9083C57.5407 15.9083 58.0278 15.754 58.3904 15.4455C58.7531 15.137 58.9344 14.7609 58.9344 14.3171C58.9344 13.9383 58.8045 13.6379 58.5447 13.416C58.2903 13.1941 57.9196 13.0371 57.4325 12.9451L56.369 12.7422C56.0822 12.6881 55.7845 12.6123 55.476 12.5149C55.1675 12.4174 54.878 12.2821 54.6074 12.109C54.3422 11.9358 54.1257 11.7085 53.9579 11.427C53.7956 11.1456 53.7144 10.7911 53.7144 10.3636C53.7144 9.78987 53.8632 9.32172 54.1609 8.95911C54.464 8.59109 54.8617 8.31778 55.3543 8.13918C55.8522 7.96058 56.388 7.87128 56.9616 7.87128C57.5895 7.87128 58.1361 7.96869 58.6015 8.16353C59.067 8.35837 59.4458 8.63709 59.7381 8.9997C60.0303 9.36231 60.2251 9.80069 60.3226 10.3148L58.8207 10.6152C58.7828 10.2851 58.6935 9.99824 58.5528 9.75469C58.4175 9.51115 58.2173 9.32443 57.9521 9.19454C57.6923 9.05923 57.354 8.99158 56.9373 8.99158C56.434 8.99158 56.001 9.09712 55.6384 9.30819C55.2758 9.51926 55.0945 9.83858 55.0945 10.2661C55.0945 10.5043 55.154 10.7072 55.2731 10.875C55.3975 11.0428 55.5816 11.1835 55.8251 11.2971C56.0741 11.4054 56.3853 11.5001 56.7587 11.5813L57.8384 11.8086C58.293 11.9006 58.7125 12.0386 59.0967 12.2226C59.481 12.4012 59.7895 12.6502 60.0222 12.9695C60.2549 13.2888 60.3713 13.7109 60.3713 14.2359C60.3713 14.815 60.2251 15.3156 59.9329 15.7378C59.6461 16.1545 59.2456 16.4738 58.7314 16.6957C58.2227 16.9176 57.63 17.0286 56.9535 17.0286Z" fill="#5524E0"/>
<path d="M47.1992 17.0286C46.6147 17.0286 46.106 16.9176 45.673 16.6957C45.2454 16.4684 44.9153 16.1599 44.6826 15.7703C44.4499 15.3806 44.3335 14.9395 44.3335 14.447C44.3335 13.922 44.4877 13.4376 44.7962 12.9938C45.1047 12.55 45.581 12.1956 46.225 11.9304C46.8745 11.6598 47.7052 11.5245 48.7173 11.5245H50.1786L50.0325 11.6706V11.1916C50.0325 10.488 49.8917 9.94953 49.6103 9.57609C49.3289 9.19724 48.858 9.00782 48.1977 9.00782C47.5754 9.00782 47.0964 9.17018 46.7608 9.49491C46.4253 9.81422 46.2467 10.2445 46.225 10.7857L44.6907 10.4366C44.7394 9.96576 44.918 9.53821 45.2265 9.15395C45.5404 8.76427 45.9571 8.45308 46.4767 8.22036C47.0017 7.98764 47.6078 7.87128 48.2952 7.87128C49.0041 7.87128 49.5805 8.00658 50.0243 8.27719C50.4735 8.54238 50.8037 8.92664 51.0147 9.42996C51.2258 9.93329 51.3314 10.5394 51.3314 11.2484V15.2507C51.3314 15.4293 51.3557 15.5484 51.4044 15.6079C51.4585 15.6674 51.5695 15.6972 51.7373 15.6972H52.2325V16.8337H51.3638C50.9958 16.8337 50.6873 16.7201 50.4384 16.4928C50.1894 16.26 50.0649 15.9678 50.0649 15.616V14.999H50.2679C50.1813 15.2263 50.0568 15.4591 49.8944 15.6972C49.7321 15.9299 49.5264 16.1491 49.2775 16.3548C49.0285 16.555 48.7308 16.7174 48.3845 16.8418C48.0435 16.9663 47.6484 17.0286 47.1992 17.0286ZM47.5077 15.892C47.9569 15.892 48.3736 15.7811 48.7579 15.5592C49.1422 15.3373 49.4506 14.9909 49.6834 14.5201C49.9215 14.0438 50.0406 13.4268 50.0406 12.6691V12.596H48.6686C47.9488 12.596 47.3805 12.6908 46.9638 12.8802C46.5525 13.0696 46.2602 13.305 46.087 13.5865C45.9138 13.8625 45.8272 14.1385 45.8272 14.4145C45.8272 14.6905 45.8895 14.9395 46.014 15.1614C46.1384 15.3833 46.3252 15.5619 46.5741 15.6972C46.8231 15.8271 47.1343 15.892 47.5077 15.892Z" fill="#5524E0"/>
<path d="M35.3105 16.8339V5.14374H43.0147V6.34523H36.7718V10.0146H42.2353V11.2161H36.7718V15.6324H43.1283V16.8339H35.3105Z" fill="#5524E0"/>
</svg>
