<?xml version="1.0" standalone="no"?>
<!DOCTYPE svg PUBLIC "-//W3C//DTD SVG 20010904//EN"
 "http://www.w3.org/TR/2001/REC-SVG-20010904/DTD/svg10.dtd">
<svg version="1.0" xmlns="http://www.w3.org/2000/svg"
 width="700.000000pt" height="700.000000pt" viewBox="0 0 700.000000 700.000000"
 preserveAspectRatio="xMidYMid meet">
<metadata>
Created by potrace 1.14, written by Peter Selinger 2001-2017
</metadata>
<g transform="translate(0.000000,700.000000) scale(0.100000,-0.100000)"
fill="#000000" stroke="none">
<path d="M876 5681 c-1 -3 -2 -136 -2 -296 l1 -290 473 -3 472 -2 -148 -148
c-143 -141 -194 -197 -237 -257 -11 -15 -29 -39 -41 -54 -135 -170 -297 -482
-382 -736 -143 -428 -172 -869 -87 -1340 20 -108 115 -434 135 -460 4 -5 11
-21 15 -35 24 -78 232 -466 263 -490 4 -3 23 -27 42 -55 139 -202 406 -463
630 -617 150 -103 399 -236 530 -283 127 -45 264 -88 320 -100 8 -2 44 -10 80
-19 36 -8 88 -18 115 -22 28 -3 52 -8 55 -9 5 -3 58 -9 180 -21 66 -6 358 -6
410 0 25 3 72 8 105 11 173 17 429 77 602 141 703 262 1254 802 1533 1504 37
92 102 299 114 363 2 12 9 42 15 67 5 25 13 68 17 95 3 28 8 58 10 69 4 22 13
101 19 171 6 61 6 322 0 390 -19 236 -65 462 -135 660 -54 155 -74 201 -145
340 -134 265 -272 454 -497 678 l-157 157 472 0 472 0 0 298 0 297 -2623 1
c-1443 0 -2624 -2 -2626 -5z m2902 -605 c17 -3 42 -7 55 -10 12 -2 40 -7 62
-11 282 -51 584 -187 843 -382 73 -55 255 -228 318 -303 232 -277 398 -646
450 -1002 l6 -37 -792 1 c-435 0 -794 -3 -797 -6 -9 -8 -10 -528 -2 -546 6
-13 101 -15 779 -15 640 0 773 -2 778 -13 5 -15 -29 -183 -58 -277 -98 -328
-286 -634 -536 -875 -549 -529 -1322 -701 -2034 -454 -422 146 -784 431 -1033
814 -117 180 -226 432 -263 610 -2 8 -12 55 -22 103 -11 48 -16 89 -13 90 3 2
356 3 784 3 427 -1 777 1 777 4 4 44 0 553 -4 557 -3 3 -361 5 -796 5 -736 -1
-790 0 -790 16 0 24 37 210 50 252 6 19 13 42 15 50 14 61 76 215 126 315 282
563 787 954 1399 1084 52 11 122 23 155 26 33 4 62 8 64 10 5 6 442 -2 479 -9z"/>
</g>
</svg>
